<svg width="512" height="512" fill="none" xmlns="http://www.w3.org/2000/svg"><path fill-rule="evenodd" clip-rule="evenodd" d="M81.346 393.847c64.421 0 76.561-56.209 76.561-101.213h95.7C403.633 292.634 403.671 82 258.393 82c-39.515 0-64.967 23.772-71.781 32.053-81.059 0-90.911 42.029-90.911 123.638v74.805c0 19.189-7.771 31.637-28.715 31.637-17.882 0-26.351-15.712-33.495-37.762C29.768 308.356 3.627 322.387 0 324.687c7.91 22.028 16.38 69.16 81.346 69.16Zm91.078-188.214c24.543 0 26.629 36.632-1.737 36.632-23.91 0-23.288-36.632 1.737-36.632Zm85.973 109.774c-20.743 0-81.35-4.457-81.35-4.457v112.934l57.42.814 14.355-81.695 181.832-3.39 4.79 89.569 66.991.818S512 254.565 512 219.37c0-65.281-29.433-102.23-95.701-105.317-16.604-.773-38.328-3.847-52.635-4.579 62.363 75.303 12.742 205.933-105.267 205.933Zm114.841 45.79 4.781 66.358 38.28.818-4.785-67.176h-38.276ZM253.607 425.52l38.281.814 9.565-65.137h-33.495l-14.351 64.323Z" fill="#FF862F"/></svg>